<svg width="100" height="100" viewBox="0 0 100 100" fill="none" xmlns="http://www.w3.org/2000/svg">
<path d="M100 50C100 77.6142 77.6142 100 50 100C22.3858 100 0 77.6142 0 50C0 22.3858 22.3858 0 50 0C77.6142 0 100 22.3858 100 50Z" fill="#00A3FF" fill-opacity="0.5"/>
<path d="M88 50C88 70.9868 70.9868 88 50 88C29.0132 88 12 70.9868 12 50C12 29.0132 29.0132 12 50 12C70.9868 12 88 29.0132 88 50Z" fill="#00A3FF"/>
<path d="M33.256 68V46.76C33.256 43.496 33.976 40.64 35.416 38.192C36.904 35.744 38.944 33.848 41.536 32.504C44.128 31.112 47.08 30.416 50.392 30.416C53.752 30.416 56.704 31.112 59.248 32.504C61.84 33.848 63.856 35.744 65.296 38.192C66.784 40.64 67.528 43.496 67.528 46.76V68H60.904V46.832C60.904 44.624 60.4 42.728 59.392 41.144C58.432 39.512 57.136 38.264 55.504 37.4C53.92 36.536 52.216 36.104 50.392 36.104C48.568 36.104 46.84 36.536 45.208 37.4C43.624 38.264 42.328 39.512 41.32 41.144C40.36 42.728 39.88 44.624 39.88 46.832V68H33.256Z" fill="white"/>
</svg>
